<?xml version="1.0" standalone="no"?>
<!DOCTYPE svg PUBLIC "-//W3C//DTD SVG 20010904//EN"
 "http://www.w3.org/TR/2001/REC-SVG-20010904/DTD/svg10.dtd">
<svg version="1.0" xmlns="http://www.w3.org/2000/svg"
 width="719.000000pt" height="861.000000pt" viewBox="0 0 719.000000 861.000000"
 preserveAspectRatio="xMidYMid meet">

<g transform="translate(0.000000,861.000000) scale(0.100000,-0.100000)"
fill="#000000" stroke="none">
<path d="M960 8099 c-104 -20 -211 -96 -267 -190 -68 -114 -63 176 -63 -3509
0 -2211 4 -3350 11 -3379 27 -118 116 -228 229 -284 61 -30 70 -32 180 -32
114 0 117 1 190 37 73 36 137 99 1982 1945 1259 1260 1913 1922 1926 1948 101
204 47 436 -129 554 -85 57 -149 74 -262 69 -172 -7 -146 14 -742 -578 -534
-530 -585 -575 -740 -652 -292 -147 -639 -173 -942 -72 -377 126 -671 420
-797 797 -42 128 -59 239 -59 387 0 256 71 485 216 700 38 57 319 344 1140
1166 967 969 1086 1092 1065 1097 -36 10 -2887 6 -2938 -4z"/>
<path d="M3622 6637 c-1444 -1445 -1317 -1300 -1317 -1497 0 -109 2 -119 32
-182 41 -88 113 -160 201 -201 63 -30 73 -32 182 -32 188 0 148 -30 750 569
454 452 527 521 618 581 385 254 847 281 1256 72 606 -309 850 -1051 545
-1659 -91 -181 -88 -178 -1226 -1318 -596 -597 -1083 -1089 -1083 -1093 0 -19
439 1 620 28 548 83 1074 311 1500 651 121 97 392 370 490 494 278 350 478
759 585 1193 111 449 119 945 24 1397 -114 537 -383 1058 -754 1460 -300 325
-679 593 -1081 764 l-81 34 -1261 -1261z"/>
</g>
</svg>
